<mxfile host="Electron" modified="2023-07-17T11:14:12.477Z" agent="Mozilla/5.0 (Windows NT 6.1; Win64; x64) AppleWebKit/537.36 (KHTML, like Gecko) draw.io/21.1.2 Chrome/106.0.5249.199 Electron/21.4.3 Safari/537.36" etag="bax0rf7CWp9hFvl49WTG" version="21.1.2" type="device">
  <diagram name="ページ1" id="DE_Cwm9TTIBniMW3XSRr">
    <mxGraphModel dx="1418" dy="774" grid="1" gridSize="10" guides="1" tooltips="1" connect="1" arrows="1" fold="1" page="1" pageScale="1" pageWidth="1169" pageHeight="827" math="0" shadow="0">
      <root>
        <mxCell id="0" />
        <mxCell id="1" parent="0" />
        <mxCell id="dbmXH5uM6QimkMxO3Vcu-1" value="" style="rounded=1;whiteSpace=wrap;html=1;fillColor=none;strokeColor=#999999;" vertex="1" parent="1">
          <mxGeometry x="330" width="230" height="100" as="geometry" />
        </mxCell>
        <mxCell id="dbmXH5uM6QimkMxO3Vcu-2" value="" style="endArrow=none;dashed=1;html=1;dashPattern=1 3;strokeWidth=1;rounded=0;" edge="1" parent="1">
          <mxGeometry width="50" height="50" relative="1" as="geometry">
            <mxPoint x="350" y="40" as="sourcePoint" />
            <mxPoint x="520" y="40" as="targetPoint" />
          </mxGeometry>
        </mxCell>
        <mxCell id="dbmXH5uM6QimkMxO3Vcu-3" value="" style="endArrow=none;dashed=1;html=1;strokeWidth=1;rounded=0;jumpSize=6;dashPattern=1 3;" edge="1" parent="1">
          <mxGeometry width="50" height="50" relative="1" as="geometry">
            <mxPoint x="350" y="79.67" as="sourcePoint" />
            <mxPoint x="520" y="80" as="targetPoint" />
          </mxGeometry>
        </mxCell>
        <mxCell id="dbmXH5uM6QimkMxO3Vcu-4" value="" style="shape=image;verticalLabelPosition=bottom;labelBackgroundColor=default;verticalAlign=top;aspect=fixed;imageAspect=0;image=data:image/png,iVBORw0KGgoAAAANSUhEUgAAAgAAAAIACAYAAAD0eNT6AAAABHNCSVQICAgIfAhkiAAAAAlwSFlzAAARJQAAESUBiboM+wAAABl0RVh0U29mdHdhcmUAd3d3Lmlua3NjYXBlLm9yZ5vuPBoAACAASURBVHic7d13nFTV+cfxzz7uUpWOCNKEiKJiQVFRUcSuie1nbGAv0cRYotiisWDF3jDWqNiwlygqgiAgKAqKIBJFOghb6LBsOfv7Y0ZjEHAXzp0zc+/3/XrNazcEnvOoy9zvnHvuOXlVVVWIZBszKwA6AG2AzdZ4bbqWX1vz1+sDluG2q4ByoAxY/YtXWTW+r8n/txgoAgqBYudceUb+6UQkVvIUACQkM2sBbLPGqxOpi39+wNZyyRJSYaCI/waDn77OB34AfnDO/RisQxHJOgoAEjkzywe249cX+W2AhgFbS5oVpMMAMG2NrzOcc2UBexORDFMAEO/MzICuwP7p1z6kpuUleznge+Bz4Iv01/HOueVBuxKRyCgAyEYzszxgJ/57wd8XfbKPAwf8h1QY+CkYTHDOrQjalYh4oQAgNZa+4G8H9CJ1wd8PaBK0KckUB3wDfAC8C4zUrQOR3KQAINWSvo9/MNAbOBDYPGxHkiWWA0OBwcBg59yswP2ISDUpAMh6mdluwCnAieiiL79tMqkw8C4wSo8oimQvBQD5FTNrB/RJv7YN3I7krmXAG8BTwEfOOb3ZiGQRBQABwMwaAX8kddHvAeSF7UhiZibwDPC0c25a6GZERAEg0dK77R1Gaor/D0DtsB1JQowkNSvwsnNuWeBeRBJLASCBzKwBcD5wMbBF4HYkuVYCr6JbBCJBKAAkiJk1By4C/gI0CtyOyC99B9wBPOOcWx26GZEkUABIADNrC1wGnA3UDdyOyPrMB+4B/qnbAyLRUgCIMTPbFriC1LP7BYHbEamJxcAA4D7n3MLQzYjEkQJADKWf3b8KOJrMH4kr4lMp8CRwp3NueuhmROJEASBGzGx/Uhf+g0L3IuJZJTAIuN05NzF0MyJxoAAQA2bWAbgP+H3oXkQiVgU8D1zlnJsduhmRXKYAkMPMrA6pT/yXA3UCtyOSSauAu0jNCOjIYpENoACQo8zsSOBeYKvQvWQLM6Nu3XrUqVuXOnXrkhdgM8PKykrKy8uoqKigvKyM8opyysvLqXIu470kxHzgGuAp5/QvWaQmFAByjJl1BO4HDg/dS5TMjM23aMmWrdvSqnVbtmjZinr1N6VevXrUqVuPuvXqUfeXX+vWo3ad7J0Ecc6lAsFawkFFeTnl5WX/831FeUX6a+r3/PT/l65axdIli1myZBFLFi9Ofb94EUuXLKaioiL0P2ZIXwJ/c859FLoRkVyhAJAjzKwucDXQl5hs2ZtnRrPmm7Pllm3Ysk07WrVuk361ZYuWW5Kfnx+6xZyyYvkylixZzNLFqVBQuHAB8+bOZv7cOcybO5sf58+lojz2h/O9CfR1zn0XuhGRbKcAkAPM7GhS0/3tQveyMTZr0JAuO3dlx513Zfsdd6F12/bUqlUrdFuJUeUcCxcuYP7c2cybO5t5c1JfZ06fxo/z5oZuz6dy4CHgRufcotDNiGQrBYAsZmZbk5ruPzR0LxuiQcNGdNmpK1127kqXnXel3VYdycvTIYPZaMniRUydMolvv5nE1Mlf85+p37ByxYrQbW2sIuAi59zzoRsRyUYKAFnKzM4h9Whfzmzd27BRY3bYcRe67LIrO+68K23bd9AFP0dVOcesWTOYOvlrvv1mEt9+8zWzZvxAjr5f/Bs4zzkXq2kOkY2lAJBlzKwh8ChwfOheqqNho8bs0/MA9j/wMLbdvosu+DFWUlTIZ2NGMXb0x3w1/jPKyspCt1QTS4DLnHOPh25EJFsoAGQRM9sdeJEsf7Svbt167LnPvvQ88DB22W0PNtlkk9AtSYaVlq5iwrhPGTt6BOPGjmbJ4py51T4UOEfbCosoAGQFM8sDLgVuIUsP7cnPz6drt+7sf9Ch7LHXvln9yJ1kVpVzTPnmaz4d/TGfjPyIeXOyfoO+FaSeqHlQewdIkikABGZmzYFnyMKFfnl5eWzXZWd6HngIPXoeyGYNGoZuSXLAxAmfM/jt1/hk5PBsf+xwNHCWc25q6EZEQlAACMjMegHPAi1D9/JL+fn57HfgoRx34qm0bZ/VdyMkiy1eVMKQwW/x3r/fyObHDEuBG0idNpjonZQkeRQAAjCzTUi96VxFFh3XW6dOXQ75/VEcc3wfmm/eInQ7EhNVVVVM+Hws7771Gp99MpLKysrQLa3NF8CpzrlvQjcikikKABlmZm2AF4C9Q/fyk80aNOTIY0/gD8cer2l+iVRJUSHvv/Mmb7/+UjYuHFwJXOiceyJ0IyKZoACQQWbWDXgHaB66F4Dmm7fgmOP7cMjvj6JOnZzZbkBioLR0Ff9+7SVeeXEgy5YuCd3Oml4gtW/A0tCNiERJASBDzOxw4CWgfuhe2rbfiuNOPJX9DjxU++1LUKtWruTNV1/gtUHPsWL5stDt/NI04ETn3OehGxGJigJABpjZWcA/gaBX24aNGnP6OX/hoMOP1IY9klVWLF/G6y8/z5uvvJBNWxCXAVcC9zrn9EYpsaMAEDEzuw64PnAPHHH0HznlzD9Rf9PNQrYisl7Lli7ltUEDeevVQZSWrgrdzk/eAU53zhWFbkTEJwWAiKRX+v8TODtkH1126sp5F/WlfYffhWxDpEaWLF7Ey88/zduvDaKiIiuezpsL9HbOjQjdiIgvCgARMLN6pO73HxGqh6bNmnP2ny9m314Hh2pBZKPNnjmdAff2Z+KErLgV74B+QD/nXFY+yyhSEwoAnqV39vs3sHuI8fMLCjjmj7058dQztbJfYmPE0Pd5fMC9lBRnxSz8x8DJOl1Qcp0CgEdm1hF4Dwgy377bHnvxp79eRqvWbUIMLxKpVStX8uy/HuHt1wZlw2ZCxaRCwAehGxHZUAoAnqSf8f83sHmmx65brx5/ueQq9j8o644TEPFuxg/fM+De/kyeOCF0K5XAFc65u0I3IrIhFAA8MLPdgGFAxpfYb71NZ6647hZatmqd6aFFghr2wbs88fB9LF5UErqVZ0kdMVwauhGRmlAA2Ehm1hkYCTTN5Lh5eXkcc3xvTjvnL9rMRxJrxYrlPPP4AN554xUCv5d9DhzjnJsTsgmRmlAA2Ahm1o7UkaJbZnLcRo2bcOnV19O1W/dMDiuStb4aP467b72eosKFIdtYAPyfc250yCZEqksBYAOZWQtgFBle8Ne1255cevUNNGrcJJPDimS9FcuX8eDdt/HxsKDr8sqAC5xzj4VsQqQ6FAA2gJk1AoYDO2VqzPz8fE4563z+78RTtI2vyHoM//A9BtzbP/TZAg8DFznnykM2IbI+CgA1lN7k5wMyeJzvFq225Iprb6ZT5+0zNaRITitcuIC7b70+9AZCHwPHOecKQzYhsi4KADVgZgXAW0DGnrfbqWs3/t6vP/Xrb5qpIUVioaqqijdefp6nHxtAeXlZqDZmAUc754I/syiyJgWAajIzI3VO+PGZGnPfXgdz6VXXk19QkKkhRWJnxg/fc+fN/2D6tO9CtbASOMs592KoBkTWRgGgmszsEeDcTI13zPG9Oev8i3S/X8SDivJynn58AK+//DxVzoVq4zbg786Fa0DklxQAqsHMbgOuyMRYeXl5nHX+RRxzfO9MDCeSKF9+8Rn9+13DksWLQrXwOqlTBbPmrGNJLgWA32BmpwFPZWKs/IICLr3qep3gJxKhosKF3HrdlXz7zdehWhgLHKnFgRKaAsB6mFkXUn9Z60U9Vr369bmm3x3s1LVb1EOJJF5FRQWPP3QPb7/+UqgWpgGHOeeCLUwQUQBYBzPbjNT2np2iHqtJs+bcePt9bNVx66iHEpFfGP7hezxw5y2UlgaZkS8GjtLOgRKKAsA6mNkgMrDiv3Xb9vS74342b9Ey6qFEZC1mzviBW669nDmzZ4YYvhQ41Tn3cojBJdksdAPZyMz+SgYu/u226sidDz6hi79IQO3ad+DeR55hn/0OCDF8HWCQmV0WYnBJNs0ArMHMdid1ul+tKMfZotWW3PHA4zRp2izKYUSkBl5/6Tn+9cgDVFZWhhh+AHChcy7I4JI8CgC/YGZNgAlA2yjHadK0GXc88DhbtMroIYIiUg2TJ07gthuupqS4KMTwbwMnOedWhBhckkW3ANLMLA8YSMQX/003a8BNdz6oi79Iltp+x124/7Fn2WGnXUIM/wdgePq0UZFIKQD811XA4VEOUKdOXW64/V7abdUxymFEZCM1btKUW+5+mCOOOi7E8LsBY82sc4jBJTl0CwAws/2BIcAmUY2RX1DA9bfewy677RHVECISgbdfG8SjD95NgB18FwHHOOdGZHpgSYbEBwAz2wL4Eohsyi3PjCuvuyXUKmMR2UhffDaG2264ipUrMn5rvgw4wzn3fKYHlvjTLQC4nwgv/gB/vfQqXfxFctiuu3fnrof+FWLtTi3gWTO7NNMDS/wlOgCY2WHAH6Mc48zzLuSQI46OcggRyYC27bfinoefYvsuO2d66DzgTjO7NdMDS7wlNgCYWV3goSjHOPQPx/B/J54S5RAikkENGjbilrsHcMChvw8x/JVm9qiZJfZ9W/xK7BqAdJq+Mqr6HbfehrsGPElBQaT7CYlIIK88/zRPPfYQAd5DXyV1pPDqTA8s8ZLIAGBmOwDjgYIo6tevvyn3PTaQlq1aR1FeRLLEmFHDufOmf4Q4TGgocLRzbnmmB5b4SNxUUnrDn38S0cUf4JIrr9PFXyQBuu/Tk/4PPEaz5ptneugDgGFmpr3EZYMlLgAAZwN7R1X8mON7071Hz6jKi0iW6bj1Ntzzz6fptO12mR66GzDSzNpkemCJh0TdAjCzzYFvgcZR1N92+y7cft+j5OfnR1FeRLJY2erV3HXLdYwaMTTTQ88GDnbOfZvpgSW3JS0ADAT6RFG7QcNGPPD4cyGmAkUkS1Q5x8P33cE7b76S6aGLgMOcc59nemDJXYm5BWBmBxDRxT8vL4++19yoi79IwuWZ8edLrqD36edmeuhmwEfp9zmRaklEADCz2sDDUdU/oc+ZdO3WParyIpJjTj79HP58yRXkZfaR/U2Bd8zs2EwOKrkrEQEA+BuwdRSFu+zUlT5nZDzti0iWO+Ko47jyulsyvRdIbeAlMzs7k4NKbor9GgAz2wyYATTxXbugoBYD/vUirVprEa6IrN1X48fR75rLWLVyZaaHvso5d1umB5XckYQZgAuI4OIP8Mfep+niLyLrtVPXbtx+7yM0ahzJ29D63Gpmd6b3PhH5lVjPAJjZpsB0UgtkvGq1ZRsGPPWitvrNkOXLljLjh2mUFBdSXFRISXERRYULKSkupKSoiOLiQlaXloZuU3LAvr0O5op/3JzxcefNnc01l13AgvnzMj62R0ucc41CNyF+xP2B9T8TwcUf4PyLL9fFP2KFC35k7OgRjBk1gklfjaeysjJ0SxILYT70tNqyDXc99CTX9v0r06d9F6QHkV+KbQAws3rAZVHU3rfXQXTttmcUpRNv+rTvGDNyOGNHj2Dad1NDtyPiVeMmTbn9/ke58eq/MemrCaHbkYSLbQAAzgea+y5ar359zvnL33yXTbxRwz9k4BP/ZM7smaFbEYlU/fqb0u+OB+l/498ZM2p46HYkwWK5CNDM6gJ9o6h96lnn06Spzt/w5esvv+CS80/n1uuv0sVfEqNWrVpcfePtHHLE0aFbkQSL6wzAeUAL30U7dtqWI47+o++yiTTjh+956tEHGTd2dOhWRIIwMy7s+3caNW7MoGf/FbodSaDYBQAzqwNc7rtunhkX/O0qLLM7e8VOSXERTz32EMM+eJcq50K3IxLcqWf/mUaNm/Dog3cT56eyJPvELgAA5wJb+C562O+PCXHcZ6xMnTKJm67pS0lxUehWRLLKkf93Ig0bNebuW6+noqIidDuSELH6OJve8/8K33ULCmpx0qln+S6bKB8NeY8rL/qTLv4i67DfAYdw3a33UKdO3dCtSELEKgAAZwKtfBc9+PAjadLM+wMFiVBVVcXTjz3EnTdfS1lZWeh2RLJa1257cus9D9OgofbakejFLQB4P5UnPz+f404+1XfZRFi1aiU3XdOXl557KnQrIjmjU+ftuePBx2newvudTJH/EZsAYGY7ATv7rrv/QYexeYuWvsvG3qKSYvpecDZjR48I3YpIzmndph13PfQk7dp3CN2KxFhsAgBwuu+CZsbxvc/wXTb2ysrK6Pf3y7TdqchGaNqsOf0feIzOO+wYuhWJqVgEADMrAHr7rttj/4N02t8GuP+Om5g6ZVLoNkRy3qabNeCWuwbQbc99QrciMRSLAAAcgedtf/Py8jjhlDN9lkyEV154ho+GDA7dhkhs1Kpdm2tvvpMDDv196FYkZuISAE73XbB7j566/1ZDn40ZyVOPPRS6DZHY2WSTTbjkin9w7Al9QrciMZLzAcDMNic1A+DViX306b8mZs2YTv9+12h3P5GI5OXlcdb5F3HW+ReRl5cXuh2JgZwPAKTu/Xvd0bDbnnvTsdO2PkvG2urSUm68+m+sWrkydCsisXfsCX245Mrr2GSTTUK3IjkuDgHgdN8FNc1WM2+88gLz580J3YZIYhxwyBFce/Od1KpdO3QrksNy+iwAM+sKeH1GZvMWLemy864+S8ba0iWLeeWFp0O3UQ78CGgKIp4M2Dp0E9mm2577cMtdA3jw7lupKC9f5++bN3c2TrfmZC1yOgAQwaf/XgcfrvtrNfDiwCdZuWJFJodcCXwAvAl8CcwDCp1zOkYtpsysEbAodB/ZqPMOO/LQky+s9/f0PuYQFi8qyVBHkktyNgCYWS3gZN91DzjE+3rC2Fowfx7vvPlKpoYbA/QH3nfOrcrUoJIVlMhFIpCzAQA4FGjqs+C223fRxj818MwTD6936tGTqcDVzrnXoh5IRCRJcnkR4CG+Cx54iDbaqK5p301lxND3oxyiCrgB2EEX/8TTDIBIBHJ5BuBAn8UKCmqxb6+DfJaMtZeee4qqqshuu68ATnPOvRrVACIiSZeTAcDM2gCdfNbcY+99qb/pZj5LxlZ5eRlffPpJVOV/BA5xzk2MagDJOZoBEIlArt4C8PrpH+DAQ7X4r7q+/OIzVq2K5Im7UuAoXfxlDQoAIhFQAAAaNW5C127dfZaMtbGjRkRV+izn3GdRFRcRkf/K1QBwgM9iPQ88VNtqVlOVc4wd/XEUpe9yzj0fRWHJeZoBEIlAzgUAM+sCtPBZs8f+3u8oxNbUKZOj2FSkkNSKfxERyZCcCwB4nv6vW68eW2+znc+SsTZm1PAoyvZzzi2LorDEgmYARCKQiwHA6/T/Djt21fR/DXz6yUjfJacDj/guKrGiACASgZwKAGZWAOzns+aOu+jgn+qqco55c2b5LvuEc67Md1EREVm/nAoAwB7Apj4L7rTLbj7LxdqSJYuprKz0XfYN3wUldjQDIBKBXAsAXu//b7pZAzr8zut+QrFWXFTou+T3zrnJvouKiMhvS3QA6LJTV/Is1/4VhFNS7D0A/Nt3QYklzQCIRCBnrn5mlgd09Vlzp66a/q+J4qIi3yW/811QYkkBQCQCORMAgHZAXZ8Fd9T9/xop8X8LYJ7vgiIiUj25FAC29VmsUeMmtG3fwWfJ2Cv2fwtAAUCqQzMAIhHIpdMAvQaALjt3JS9P7ys1sajY+y2A+b4LivyWhQt+5ONhH4RuI2PKy/SUraxdcgPATnr+v6bKyyu8l/RdUGLJa1L/dvLXfDv5a58lRXJSYm8BtO/Q0Wc5EYmOpupEIpDYALBlm3Y+y4mIiOSUnAgAZtYYjycA1t90Mxo1buKrnIhESzMAIhHIiQCA50//rfXpX0REEi6ZAaCtAoBIDtEMgEgEEhkAdP9fJKcoAIhEIJEBQDMAIiKSdLkSADr7LNa6bXuf5UQkWpoBEIlA1gcAMysAvO3Zm2dGqy1b+yonIiKSk7I+AABNgU18FWuxRUsKCmr5Kici0dMMgEgEciEANPBZTI8AiuQcBQCRCORCANjMZ7EWW7TyWU5ERCQnJS4A1K1f32c5EYmeZgBEIpALAcDrLYB6dev5LCciIpKTciEA+J0BqKcAIJJjNAMgEoFcCABeZwDqaAZAJNcoAIhEIBcCgNcZgHqaARAREUleAKhbT4sARXKMZgBEIpAfuoFq8HoLQGsARHJOIXDlL/531UZ8v7F/PuljlCGxkQsBwO8MgNYAiOQU51wJcHvoPkTiJhduAfidAVAAEBERyYkAoMcARUREPEtgANAiQBERkVwIAHV9FqtVSycBioiI5EIA0CNAIiIinuVCABARERHPFABEREQSSAFAREQkgRQAREREEkgBQEREJIEUAERERBJIAUBERCSBFABEREQSSAFAREQkgRQAREREEkgBQEREJIEUAERERBJIAUBERCSBFABEREQSSAFAREQkgRQAREREEkgBQEREJIEUAERERBJIAUBERCSBFABEREQSSAFAREQkgRQAREREEkgBQEREJIEUAERERBJIAUBERCSBFABEREQSSAFAREQkgRQAREREEkgBQEREJIEUAERERBJIAUBERCSBFABEREQSSAFAREQkgRQAREREEkgBQEREJIEUAERERBJIAUBERCSBFABEREQSSAFAREQkgRQAREREEkgBQEREJIEUAERERBJIAUBERCSBFABEREQSSAFAREQkgRQAREREEkgBQEREJIEUAERERBJIAUBERCSBFABEREQSSAFAREQkgRQAREREEig/dAMiIutjZgY0CN2HAFDlnFsSugnxQwFARLJdJ2BK6CYEgCVAo9BNiB+6BSAiIpJACgAiIiIJpAAgIiKSQAoAIiIiCaQAICIikkAKACIiIgmkACAiIpJACgAiIiIJpAAgIiKSQAoAIiIiCaQAICIikkAKACIiIgmkACAiIpJACgAiIiIJpAAgIiKSQAoAIiIiCaQAICIikkAKACIiIgmUH7oBEZFMatioMW3bbRW6jYyZMnkiFRUVoduQLKQAICKJslPX3bjiH7eEbiNjeh9zCIsXlYRuQ7KQbgGIiIgkkAKAiIhIAikAiIiIJJACgIiISAIpAIiIiCSQAoCIiEgCKQCIiIgkkAKAiIhIAikAiIiIJJACgIiISAIpAIiIiCSQAoCIiEgCKQCIiIgkkAKAiIhIAikAiIiIJJACgIiISAIpAIiIiCSQAoCIiEgC5YduQEQkk+bOnsWbr7wQuo2MWb26NHQLkqUUAEQkUaZ9N5Vp300N3YZIcLoFICIikkAKACIiIgmkACAiIpJACgAiIiIJpAAgIiKSQAoAIiIiCaQAICIikkAKACIiIgmkACAiIpJACgAiIiIJpAAgIiKSQAoAIiIiCaQAICIikkAKACIiIgmkACAiIpJACgAiIiIJpAAgIiKSQAoAIiIiCZQfugERkd8wHzjDY709gPN8FdtnvwPo1n0fX+V4bdCzzJw+zVs94GJgiadaZZ7qSBZQABCRrOacWwI85auemZXiMQD8bpttOfDQ3/sqx4ihH/gOAIOccz/6LCjxoFsAIiIiCaQAICIikkAKACIiIgmkACAiIpJACgAiIiIJpAAgIiKSQAoAIiIiCaQAICIikkAKACIiIgmkACAiIpJACgAiIiIJpAAgIiKSQAoAIiIiCaQAICIikkAKACIiIgmkACAiIpJACgAiIiIJpAAgIiKSQAoAIiIiCaQAICIikkAKACIiIgmkACAiIpJACgAiIiIJpAAgIiKSQAoAIiIiCaQAICIikkAKACIiIgmkACAiIpJACgAiIiIJpAAgIiKSQAoAIiIiCaQAICIikkAKACIiIgmkACAiIpJACgAiIiIJpAAgIiKSQAoAIiIiCaQAICIikkAKAFJt9erV811yU98FRUSkehQApNqaNGvuu2Qr3wVFRKR6FACk2po2bea7pAKAiEggCgBSbZoBEBGJDwUAqbYIAkA33wVFRKR6FACk2iK4BXC4mdXyXVRERH6bAoBUWwQzAA2Anr6LiojIb1MAkGqrX39T6tSp67vssb4LiojIb1MAkBrZepvOvkueZmZtfBcVEZH1UwCQGuneo6fvknWAm3wXFRGR9VMAkBrZc+/9oijbx8x2iqKwiIisXS4EAOezWFVVlc9yidOiZSu26ri177IGPGFm3hcYiIjI2uVCAFjhs1jpqlU+yyXSnvtEMguwK/BEFIVFROTXciEALPdZbMUKr+USqXs0twEATjKzK6MqLiIi/5ULAWCZz2IrV3idUEikjp22pXmLLaIqf4uZ/T2q4iIikpK8ALBSMwA+7Nfr4KhK5wE3mdmLZub9/GEREUlJXgDQLQAvjjvpVOrX3zTKIU4ARpmZzgsQEYlAAgOAbgH4sFmDhhx38mlRD7ML8Gl6NqBD1IOJiCRJ4gKAFgH6c9T/nRjF+QBryiM1GzDFzAaa2bFmVj/qQUVE4i4/dAPVoBmALFW7Th36nHEu999xcyaGqwX0Sb9KzWwIMAGYB8xNf12ZiUYk57XyWWzJ4sXMmTXDW73Vpd4fVf6dmTXyVGuRc26Bp1oSWF62b4xjZn2Agb7qnXTa2fQ540++yiWec44/n3Eis2dOD92KiETvEefceaGbED8SdwtAMwB+mRmnn/uX0G2ISGbkhW5A/MmFAOD1pr2eAvBvz733Y+99e4VuQ0SipwAQI7kQADQDkAMuvfoGOm69Teg2RCRaCgAxkrgAsHjxIp/lJK12nTpce/NdNGrcJHQrIhIdBYAYyYUAsNBnsZnTp/ksJ7/QfPMWXHvznRQU1ArdiohEQwEgRrI+ADjnioFCX/WWL1tKSZG3crKGbbfrwoV9tZW/iEi2y/oAkPaNz2Izpn/vs5ysodfBh2dil0ARyTzNAMRIMgPAD7oNELXTz/kLJ/Q5I3QbIuKXAkCMJDMAaB1A5PLy8jj17D/T95p+1KqlNQEiMaEAECO5EgCm+Cw24wfdAsiUngceyu33PUqTps1CtyIiG08BIEZyJQB4nQGYPeMHqpzzWVLWnX0VhQAAIABJREFUo1Pn7bn3kWf4XafOoVsRkY2jABAjOREAnHPzgcW+6pWVlTFv7hxf5aQamjZrzh0PPMa+vQ4K3YqIbDgFgBjJiQCQpicBclyt2rW54h+30O+O+9mq49ah2xGRmlMAiJHEBoCZehIgmK7duvPAY89y6dU3sHmLlqHbEZHqUwCIkcQGAC0EDCvPjF4HH86jz77C2X++mM0aNAjdkohIouRSAPD6JMDkr7/UQsAsUFBQi2OO780Tz7/ByaefQ+u27UO3JCLrphmAGMmrqqoK3UO1mFlbYKbPmnc8+Djb7bCTz5LiwZzZMxk7agRjRg1n6jeTyJWfUZEEeNE5d1LoJsSPnAkAAGY2F2jlq95xJ53KGX/6q69yEoHFi0oYO/pjxo4azrTvprJoUYlmbkTCGeScOzF0E+JHrgWAJwFv+8u2btOORwa+4qucZIBzjsUlxRQXF1FctJDiokJKioooKS6ktHRV6PZEss7YUSMoKyvzVe4l59wJvopJWPmhG6ih9/AYAObMnsmc2TNp3aadr5ISMTOjSbPmNGnWnK230cZCIr+l9zGHUFZW4quc1gDESC4tAgQYAlT6LDh21Aif5URE4kwBIEZyKgA45xYB43zWHDtaAUBEpJoUAGIkpwJA2ns+i337zSQWL/I2PSYiEmcKADGS+ABQ5RyfjRnls6SIiEjWy8UAMA4o9llQtwFERKpFMwAxknMBwDnnSC0G9GbC55+yauVKnyVFROJIASBGci4ApL3vs1jZ6tW89+/XfZYUEYkjBYAYUQBIe/OVF6is9PqEoYhI3CgAxEhOBgDn3HzgK581Cxcu4ONhH/gsKSISNwoAMZKTASBtkO+Cr7440HdJEZE4UQCIkVwOAE8A3ja4Bpg+7TvGjxvjs6SISJwoAMRIzgYA59xC4DXfdV99QbMAIiISfzkbANIG+C745fhxTPvPt77LiojEgWYAYiSnA4BzbiQwyXfdV7QWQERkbRQAYiSnA0Daw74Ljhr+IQt+nO+7rIhIrlMAiJE4BICBwHKfBZ1zvDjwCZ8lRUTiQAEgRnI+ADjnlgHP+a475N23mDxxgu+yIiK5TAEgRnI+AKR5XwxYVVXFA3fdSkV5ue/SIiK5SgEgRmIRAJxzE4FPfNedPXM6r7z4jO+yIiK5SgEgRmIRANK8zwIADBr4JPPmzI6itIhIrlEAiJE4BYCXgZm+i5aVlfHg3bf6LisiIhJUbAKAc64MuCqK2l+NH8fQ99+JorSISC7RDECMxCYApL0IjIui8OMD7mXZ0iVRlBYRyRUKADESqwDgnKsCLo2i9tIli3l8wL1RlBYRyRUKADESqwAAP28P/HoUtT9879+MGPp+FKVFRHKBAkCMxC4ApF0BRPIA/739+/H9f6ZEUVpEJNspAMRILAOAc+474J9R1C5bvZp+f7+MxYtKoigvIpLNFABiJJYBIO0GIJJVe0WFC7np2r7aJVBEkkYBIEZiGwCcc8XAzVHVnzJpIg/de3tU5UVEspECQIzENgCk3Q/MiKr4B++8yduvDYqqvIh4VlFRwawZ00O3IZIVYh0AnHOrgb5RjvHYQ/fw5fhIth4QEU9m/PA9jz10D6cedzgvPPNY6HZymWYAYiQ/dANRc869YmbPAn2iqF9ZWclt11/JPf98mpatWkcxhIhsgOXLljJi6Ad88O5benLHHwWAGIl9AEj7M7AX0CGK4suWLuWqi8/jlnseptWWbaIYQkSqoco5JnzxKUMGv82YkSMoLy8L3VLcKADESCICgHNumZmdDIwion/mwoULuOLCc7n5rgG0bb9VFEOIyDrMmzubDwe/zdD336GocGHoduJMASBGEhEAAJxzn5rZdUT4ZEBJcRFXXHQuN9/1EB1+1ymqYUQEWLVqJaOGD2XI4LeZPHFC6HaSQgEgRhITANJuAw4G9otqgKVLFnPVJefTr//9dOq8fVTDiCTWpK8mMGTwW4waPpTS0lWh20kaBYAYSVQAcM45M+sDfAU0iWqc5cuWcvWlf+aG2+5l+x13iWoYkcQoXLiAYe+/w5DBbzN/3pzQ7SSZAkCMJCoAADjn5pjZOcCrUY6zauVKrr38Qq696U522W2PKIcSiaWysjLGjhrOkMFvM+GLz6hyLnRLogAQK4kLAADOudfM7DHgnCjHWV1ayg1X/Y2rrr+VPfbeN8qhRGLju6lTGPLuWwwf+j4rli8L3Y5IbCUyAKRdDPQAto1ykPLyMvpd25eTTj2Lk089mzyL9d5LIhtk8aISPhoymCGD32bm9Gmh25F10wxAjCQ2ADjnVprZ0aQeDWwW5VhVzvH8U48xZdJE+l7Tj4aNGkc5nEhOKFu9mrGjRzD0/XcYP24sTlP8uUABIEYSGwAAnHNTzewIYBhQP+rxJnz+KX89uzdXXX8bnXfYMerhRLJOVVUVk74az9D332H0x8NYuWJF6JakZhQAYiTRAQDAOfeZmR0HvAUURD1ecVEhV1x0Lmf86a8cc3zvqIcTyQpzZs1g2AfvMmzIYAoX/Bi6HdlwCgAxkvgAAOCce8/MzgSeIQM/4JWVlTw+4F4mf/0ll1x5HfXrbxr1kCIZt2TxIj4e9gFD33+H76ZqL/6YUACIEQWANOfcs2bWArgzU2OOGTmcGdO+56obbqPj1ttkaliRyJSVlfHZJx8z9P13+eKzT6isrAzdkvilABAjCgC/4Jy7y8y2AC7L1Jjz583hkvNO46jjTqL3GedSp07dTA0t4kVVVRXffP0lQ99/l1HDP2TFiuWhW5LoKADEiALAr10OtABOydSAlZWVvDboWUZ+NIQ//fUyuvfomamhRTbY3Nmz+GjIYIZ98A4Lfpwfuh3JDAWAGFEAWINzriq9HqA5cGgmxy5cuICbru1Ltz334fyLL6fFFi0zObzIb1q2dAkfDxvC0PffYeqUSaHbEZGNoACwFs65ivSTAR8Ae2V6/HFjR/HVaeM48ZSz+L8T+pBfEPnDCSLrVFFezmdjRjH0/Xf4/NPRVFRUhG5JwtEMQIwoAKyDc26FmR0EvAAcmenxy1av5pnHBzDsg3e54G9X0mXnXTPdgiTclEkTGfrBO4z86EOWL1sauh3JDgoAMaIAsB7p3QKPBR4EzgvRw5xZM7jy4vPYY+99OenUs9l6m84h2pCEmPHD94waMZThQ97TqXuyNgoAMaIA8Bucc5XA+WY2G7g5VB+fjv6YT0d/zK67d+ekU8/WToLiRVVVFd99+w2jR37EJx8PY96c2aFbkuymABAjCgDV5Jy7xczmAI+TgR0D1+WLz8bwxWdj2KlrN0469SzdGpAaq3KOyV9/xeiPhzFm5EcULlwQuiXJHQoAMaIAUAPOuWfMbD7wKrBZyF6+Gj+Or8aPY/suO3PiqWfRtdueIduRLFdRUcHECeMY/fFHjB01gsWLSkK3JLlJASBGFABqyDk3xMz2Bd4Fgj+nN/nrL7m271/p1Hl7jj2+D9332U9PDQiQWkg6/vOxjB4xjE8/GcmK5ctCtyS5TwEgRhQANoBz7ksz6w4MBrJiVd5/pkzmthuuokHDRvQ6+HAOOeJo2rbfKnRbkmFzZs9kfPo20ddfjWd1aWnoliReFABiRAFgAznnZprZ3sBzwGGh+/nJ0iWLeePl53nj5efZdvsuHHL4UfTodRB169YL3ZpEYOWKFXw1fhxfjBvDF5+OYeEC7cgnItWjALARnHOLzOwI4K/A7UCdwC39j28nf823k7/m0QfvZt9eB3PwEUey7XZdQrclG6Gqqopp333LF5+O4YtxY/l28kQduCOZpBmAGMmrqqoK3UMsmFkX4Hlgh9C9rE/b9lvRvcf+7LnXvmy97Xbk5envc7YrKSrky/HjGD9uDOPHfcqSxYtCt5RJE4GBwPVAfR8Fa9epQ8OGjX2UygmFhQuocs5XuenOuQ6+iklYCgAemVkdoD+pGYGs17hJU3bv3oM99urBzrvuTu06WTWBkUiVlZXMmPYd30yeyJRJE/l28sQkHrQzj9SttWedcxMBzGwx0DBoVwIwwzmnxUUxoQAQATM7DPgXqVMFc0Kt2rXZuevu7LFXD3bfqwdNmjYL3VIiLFu6hCmTJ/Lt5K/5ZtJE/vPt5KQu3FsOvEbq0/4w5/73I6sCQNaY6ZxrH7oJ8UMBICJmtjmpEHB46F5qKi8vjw6/68R2XXam8/Zd6LzDjmzeIvgTjzmvyjlmzZzOlMlfM2XSV0yZPJG5s2eFbiukSuBDUhf9151zK9f1GxUAssYs51y70E2IHwoAETOzC4A7yLIFgjXVpFlzOm+XCgOdt9+Rjp22oaCgVui2slJFRQXz585m1szpzJ45ndkzZzBrxg/MmT2TstWrQ7eXDb4kddF/3jn3Y3X+gAJA1pjtnGsbugnxQwEgA8ysM/AAcEDoXnwpKKhFx07bsE3nHWjbbitat21P67btaNS4SejWMmZ1aSlzZs9k9szp/3Oxnz93to7M/bU5/Pe+/qSa/mEFgKwxxznXJnQT4ocCQAaZ2dHAnUDH0L1Epf6mm9G6TTtat2tPm7btaN0mFQxatmqdUzsUri4tZVFJMSUlRZQUF7GopJhF6a9FhYXMnTOThT/OR39/1msZqW2zBwLD17yvXxMKAFljrnOudegmxA8FgAwzs9rAxcDfCXyeQCblmdGgQUMaNW5C48ZNaNSk6Vq/b9i4CXXq1KFWrdoU1Kq1wY8pVpSXs7psNeVlZZSVraasrOx/vi9bvZrFi0pSF/niIhaVFLGoOHXBX1RSzMoVKzz/G0iMSuADUhf9N5xzq3wUVQDIGgoAMaIAEIiZbQHcApyONtdYp/yCAmrVqvVzIPj5+4ICKisrUxfzny/0//1eP9cZN57URf8F55z34wUVALLGPOfclqGbED8UAAIzs92Ae4G9Q/ciUkOzgWdJ3df/JsqBFACyxnznXKvQTYgfCgBZwsxOIrWdsBbYSDZbCrxC6tP+COdcRt5AFACyxo/OOT0THBMKAFnEzOoB55NaI6D7bJItSknd138eeMvXff2aUADIGgucc1uEbkL8UADIQmZWAJwE9CXLzxaQ2FoKvEtqd77BzrnlIZtRAMgaC51zObPDqayfAkCWS28rfDnQM3ArEn+FwFukLvofOufKAvfzMwWArFHonNs8dBPihwJAjkgvFrwcOBbYJHA7Eh+zgddJXfRHOeey8mxhBYCsUeScax66CfFDASDHmFkH4FLgDKBu4HYkN00ldcF/zTn3eehmqkMBIGsUO+d0UlhMKADkKDNrBpwJ9AG6BG5HslsZMAp4H/h31I/sRUEBIGsoAMSIAkAMmNkOQG/gZEAHdQikPuW/T2r1/nDnXE5vbagAkDVKnHNNQzchfigAxIiZ5QH7kAoCxwPJOZlHFgNDSV/0nXMzA/fjlQJA1ljknNP7SkwoAMRU+lHCQ0nNDByJ1gvETSUwjv9+yv80Wxfw+WBmI/nv2Rl56/ha3V9rAHjbza5WrVpej8YuLV1FZaXX/5RLAV9v9Iudc+091ZLAFAASwMw2BY4B/gD0AjSFl3vKgAnAGGA0MNQ5tyhsS7nJzE4EXvBV7/Rz/8IfTz7dVzmu7Xsh48eN8VYPaOmc+9FnQYmH/NANSPTSm7gMBAaamQG7AAcCB5E6g6BOwPZk7WYDY0ld8McC451zq8O2JCJxogCQMOkz2b9Iv243szpAD1KB4EBS4UCnE2ZWKan/Hj9f8J1zc8O2JCJxpwCQcM65UmBI+vXT44W9SM0O7AN0AixYg/GzgtQK/W9I3cMfC0xwzpUH7UpEEkcBQP6Hc64IeCn9wszqktpnYEdgp/RrR7Qi+7fMA75dy2tOpk7QExFZHwUAWa/0yW+fpV8/M7P2/DcQ/PTqQLJuH5QD37OWC71zbmnIxkREfosCgGwQ59wMYAbw5k+/ln7aoCOwZfrVei3fN85wqxtiKTAf+HEtr1/+emF6TYWISM5RABBv0k8bfJV+rZWZ1eO/oeCnV3NS+xTUJfVEQt31vOr84msFsJrUIrrSX3y/rq9r/toqUifg/c/FPsR59yIimaYAIBnlnFsJfJd+iYhIIFrdLSIikkAKACIiIgmkACAiIpJACgAiIiIJpAAgIiKSQAoAIiIiCaQAICIikkAKACIiIgmkACAiIpJACgAiIiIJpAAgIiKSQAoAIiIiCaQAICIikkAKACIiIgmk44BFEsrM8oCmQCugHlAILHTOLQvamEgNpH+OmwDN01+LgXn6Of5tCgAiMWdmDYDDgb1IXex/erUEaq3l95eSDgPAVGAYMMw5Nz1TPYusycwM2BnYH+gJtCN10W/GWq5lZrYcmPeL12zgQ2CEc648M11nNwUAkRgysy2BI4GjSb1hFtTgj9cB2qRfuwInp2vOAD4ChgCvO+dKPbYs8itm1gL4I9CL1EW/cQ3++KZAp/TrJ1cAi83sXeAN4L0kzxQoAIjEhJnVA84HTgB2A/I8D9EeOCP9KjSzh4GHnHMLPY8jCWdmOwCXAL2B2p7LNyIVak8GVpvZMOBp4CXnXJXnsbKaFgGK5Dgz28TMzgG+B+4EuuH/4r+m5sA/gFlm9riZbR/xeJIAZnaImb0PfA2cif+L/5pqA4cBLwLjzKxXxONlFQUAkRxmZkeSerN8lNQ9/UyrDZwFfG1mD5vZZgF6kBxnZh3N7CPgPeDgQG3sCgw1s8FmtmOgHjJKAUAkB5nZbmY2EngT6By6H1IzDucBk83ssNDNSG6wlL+RCrE9A7fzk0OBCWb2lJmFCNUZowAgkmPM7GzgE2Cf0L2sRRvgXTN72syahG5GspeZbUfq5/guoG7gdtZkwGnAeDPbM3QzUVEAEMkR6Xv99wKPUbNV/SGcSupT1LahG5HsY2bHAOOBPUL38hu2AIab2WmhG4mCAoBIDjCzRsC7wEWhe6mBtsAoM8v2N3nJoPQM1stEv8DPl9rAU2Z2Z3ovgtiI1T+MSByZWSfgU8ItjtoYTUktrDo0dCMSnpldRWoGa5PQvWyAS4F3zKxh6EZ8UQAQyWJmthUwmv/dzCTX1AfeMrPeoRuRcMzsbuCW0H1spEOBD80s29YsbBAFAJEslX6k7m1SW53mugLg6aQ9Zy0pZnY5qY194mA34InQTfigACCShdL3Gp8D4rTBzibAIDNrF7oRyRwzO5jc/+S/ppPStzNymgKASHa6BfhD6CYi0Ax4PS5TqLJ+ZtYBeIHcvOf/W24ys5z+O6oAIJJlzKwPqUNL4moXUgvBJMbMrD7wOqkjeuPIgOfS+xnkJAUAkSySXvH/eOg+MqB3XJ+tlp/dCcR9S93NSM1oZfu+HGulACCSXW4ld56P3li3pj8lSsyk99I/N3QfGdKJ1CmcOUcBQCRLmFl34NjQfWRQS+DK0E1IJO4lWdeXa82sQegmaipJ/4FEsl3/0A0EcKmZtQndhPiT3uZ3/9B9ZFgzcjDM5oduQETAzI4ig4f75OXl0aJlK5o2bU6TZs2oVbsOi4qLKC4qZMH8eZSWrspUK3WB2wBtEhQDZlab1L3/jGnQsBHNW2xB06bNadioEcuWLqWkuJDChQtYVFKcyVYuNrOHnHNzMznoxlAAEAnMzDYhdRGMVF5eHrvstid79ejJHnvvS5Oma99fqKK8nC/Hj2PMqOGMHjGUZUuXRt3aSWb2D+fctKgHksj1BjpEPUir1m3o0fNA9tynJ1tv05m8vLy1/r6ZM35g7MjhjBoxlB++/0/UbdUF+gFnRj2QLwoAIuEdB0R6at6uu3fn9HMvoMPvfntH4fyCAnbbYy9222MvzjrvIl59cSBvvPx8lLMCecApwPVRDSAZc2qUxZtv3oLeZ/yJAw45guqcy9OufQfate/ACaecyZhRw3n6sQHMnjk9yhZPM7PrnXOzohzEF60BEAkvsoV/9etvynW33s2N/e+v1sV/TfXq1+eUs87jsedeY7sddoqgw5+dEmVxiZ6ZtQf2jar+74/5I48++xoHHfaHal3819R9n54M+NeLnHLWeeucMfDAgKOiKu6bAoBIQGZWCzgsitpbtmnL3f98it2799joWk2aNuPWex7mgEN/76GztepgZhlbAyGR6ENqNser/Px8/nrp1Zx/0eXUqlVro2qZGSeechZX33A7tevU8dThrygAiEi19CK1mYhXLbZoyZ0PPkHrNv623c8vKOBvV17HYUdGNmER6fSxRC6SWZy+1/Tj0D8c47XmXvvuz423309+QST79+xnZo2iKOyb1gCIhHW074J16tTl2pvvokHDaN6Dzr/ocubNmc1X48f5Ln28mc3zXXQtdsjAGNnkMjNbHvEYjYjgyOoTTjmTfXoe6LssADvstAt/ueRK7uvfz3fpfOBw4HnfhX1TABAJxMzygCN91z3/4svZquPWvsv+bJNNNuHqG27jvNOO9/2YVUPgOp8FBYBLQzewIXbcZTdOOfO8SMc4+PAjmTplEu+9/brv0keRAwFAtwBEwtmd1G543nTstC0HHHKEz5JrtelmDTjptLMjH0eSKS8vj3P+ckmUi/V+dsqZ51G3bj3fZQ9Nr+/JagoAIuHs7LvgWeddmJE3TYBDjjiaVltqEz/xb/+DDtugp1Y2RKPGTTjmBO/7UDUAtvJd1DcFAJFwWvks1r7D79ipazefJdcrPz+fw4/6v4yNJ8lx9HEnZXS83x/9xw16tPA3eP37HQUFAJFwvL5BdO/R02e5atmrR9K2fJeobd6iJR07Rbov1q80bNSY7bp43+fC6+29KCgAiITjNwDs09NnuWpp0bJVpAsOJXn23Ge/IONG8PdHMwAisk7e3iDyzIJdiDtsvU2QcSWeOgb6eYpgXAUAEVknb28QjRo1juIeZrU0abL2Q4VENkSTpk2DjNt4HYdjbQQFABH5NTPLB5r7qtekmbdSNda0mQKA+NOkaZif5ab+x1UAEJHo5fnfgr0GgwccW2InU4+x/nrgHKjomQKASADOuQqg0Fe9kpIiX6VqbFFxuLElfkoC/TwtKva6qyVAJra13igKACLheHuDWFxSjHPOV7kaKS7ylmNEKAn081Rc7H1cBQARWSdvbxDOOWZOn+arXI1Mn/ZdkHElnn4I9PM0/fv/+C4533dB3xQARMLx+glh7KgRPstVy8IF85n23dSMjyvxNWbU8EDjev/7oxkAEVknr28Qn4z8yGe5ahkzMvOhQ+Jtwfx5GZ9VWrZ0CZO+Gu+7rAKAiKyT1zeIH77/D5O//tJnyfWqrKzk3Tdfydh4khxvvTYoo+O98+YrUayhUQAQkXXyfrX+1yMP+C65TkMGv82c2TMzNp4kx4eD32b2zOkZGWvpksW8+uJA32WXAz/4LuqbAoBIOJ/heaHQlEkTGTViqM+Sa7VixXKee+rRyMeRZHLO8eQ/MxNmn3vqUVauWOG77HvOuTLfRX1TABAJxDlXBbzlu+59/fsxa0Z0n56cc9x+w9XBHteSZPhszEgGDXwy0jE+GvIe/3795ShKvxlFUd/yQzcgknBvAH/yWXDlihXccPUl3PPwUzRo2MhnaQAee+gevvhsjPe6wHvAfVEUXsN+wJUZGCdbnAEszsA4DwNb+Cw48Ml/0rpde/bet5fPsgB8O/lr7uvfz3tdoAJ4J4rCvikAiIQ1DFgGbOaz6I/z5tL3grO57tZ7aNW6jZealZWVPHxffwa/9ZqXemtxl3Puw6iK/8TM/Kei7Paec+7HqAcxsz3wHKyqqqrof+Pf+cslV3LwEUd5qztu7Chuv/HvlJdHMks/0jm3KIrCvukWgEhA6fuEg6OoPWf2TC45/3QmfP7pRtdasngR11x2QZQX/x+A6BcvSJQeA6p8F62oqOC+O27i8QH3UlFRsVG1qqqqeG3Qs9xw9aWsWrnSU4e/4v22XlQUAETCi+yqunzZUq657AJuuqbvBq2qLi1dxYsDn+Ds3scwccLnEXT4syfSayIkRznnIg1xr7/0HH869ThGDH2fqqqa/6h88dkYLjynD088fB9V0W2bXUXqtl5O0C0AkfBeAb4Fto1qgDGjhvPpJx+ze/ce7NWjJ7vv1YPNGjRc6+91zjH56y8ZM/IjRgz9gMWLSqJq6ycVwL+iHkQy4lHgwKiK/zhvLv37XcOggU/So9dBdN+nJ+07/G6dv3/B/Hl8MvIjRn70IVOnTIqqrV961jk3IxMD+aAAIBKYc67SzK4k4k8OzjnGjh7B2NEjMDNat21Hk6bNadqsObVq16akuIiSokLmz5vL8mVLo2xlTa8557J+33SpljeAOUDrKAeZOeMHZj75CM8++QhNmzVn8y1a0rRpcxo2asyyZUsoKS6iqHAhP86bG2UbayoFrsnkgBtLAUAkCzjn3jSzUcA+GRqPWTOmR/q4YDWtAq4I3YT44ZwrN7PLgBczNWZxUWG2nEj5gHNuVugmakJrAESyx+WhGwjg1lyaMpXf5pwbBAwP3UeGlQC3hG6iphQARLKEc24MES4IzELTgP6hm5BIXEBqbUdS3Oycy8ReC14pAIhkl6uA1aGbyJALnXNJ+WdNFOfcZCBzB1OENQ14KHQTGyJvQx6nEJHomFkfwPvpJFnmGefcaSEGNrMTgRd81Wu+eQuaNG3uqxxzZs1gxYrl3uoBLTOxEdCazKwBMA7olOmxM2gFsLdz7qvQjWwILQIUyTLOuWfNbAfiuzjuU+Dc0E34UrhwAYULF4RuI+s455aa2ZHAWCCOuy9WAafl6sUfdAtAJFtdDbwduokIzAWO0dR/MjjnpgInApWhe4nADc65V0M3sTEUAESykHPOAb2ByaF78WgVcLSe+U8W59z7QN/QfXj2KnBj6CY2lgKASJZyzi0D/gAUhe7Fg3LgFOdcpPsJS3Zyzt1D6rTAOPiK1NR/zi+gUwAQyWLOuenA3sB/QveyEZYDv8/16VLZOM65PwORnL+bQcOAXs65FaEb8UEBQCTLOef+A+wBfBDwAdc/AAACSklEQVS6lw2wANjPOZeLvYtnzrl/AOeRm2sCHgIOcc5FfjhGpigAiOSA9CYjhwP3he6lBr4DujvnxoduRLKHc+4R4FhSa0JyQTnwJ+fcBc65WG1upAAgkiOcc5XOuYuBc0i9KWWzZ4E907cwRP6Hc+4tUre2vgzdy28oAg50zj0aupEoKACI5Bjn3OPAXsCo0L2sxSzgMOfcKXGaKhX/nHMTgG6k9rvIttmAKmAQsKtz7uPQzURFAUAkBznnPnfO9QCOAqaE7gdwpLZ+3d45917oZiQ3OOcqnHP9gS7A0ND9pA0H9nDOnZhrp/vVlAKASA5LT6V2IbWzXojn68uAZ0h9UrrQOed1D1tJBufcNOfcgcCRpFbahzAJOMI5t79zblygHjJKAUAkx6XXBjwG/A64jNT+61E/o7wQuAFo55w7zTmX7fdyJQc45952zh0A7Ag8AZRGPGQFqcBxOrCTc+7diMfLKjoMSCSGzGxLUp+mjgb2Bwo8lJ1Janr0A+DVXN3O1/dhQDkgyGFAPphZM+Bk4ABgP6Chh7JLgcHAW8C7uXiMry8KACIxlz6V7XBSCwdb/eLVEqi1lj+yCigk9Sl/MqmL/nDn3IwMtBs5BYDcZGabALsAvYCewFZAc6Axa5/NXg7M+8VrNql1BsOdc9n+FE1GKACIJJSZ5QFNSYWBeqQv+uktiGNLASBezMxI/Rw3J3XqYDEwL+4/xz7oOGCRhErvZV5EPM4akIRKH5xVmH5JDWgRoIiISAIpAIiIiCSQAoCIiEgC/T+XBHS79jZmmQAAAABJRU5ErkJggg==;flipH=0;" vertex="1" parent="1">
          <mxGeometry x="260" y="25" width="50" height="50" as="geometry" />
        </mxCell>
        <mxCell id="dbmXH5uM6QimkMxO3Vcu-5" value="" style="rounded=0;whiteSpace=wrap;html=1;fillColor=#00CC00;strokeColor=none;" vertex="1" parent="1">
          <mxGeometry x="400" y="40" width="20" height="40" as="geometry" />
        </mxCell>
        <mxCell id="dbmXH5uM6QimkMxO3Vcu-6" value="" style="rounded=0;whiteSpace=wrap;html=1;fillColor=#0066CC;strokeColor=none;" vertex="1" parent="1">
          <mxGeometry x="440" y="40" width="20" height="40" as="geometry" />
        </mxCell>
        <mxCell id="dbmXH5uM6QimkMxO3Vcu-7" value="" style="rounded=0;whiteSpace=wrap;html=1;" vertex="1" parent="1">
          <mxGeometry x="480" y="40" width="20" height="40" as="geometry" />
        </mxCell>
        <mxCell id="dbmXH5uM6QimkMxO3Vcu-8" value="R" style="rounded=1;whiteSpace=wrap;html=1;fillColor=none;strokeColor=none;" vertex="1" parent="1">
          <mxGeometry x="360" y="10" width="20" height="20" as="geometry" />
        </mxCell>
        <mxCell id="dbmXH5uM6QimkMxO3Vcu-9" value="G" style="rounded=1;whiteSpace=wrap;html=1;fillColor=none;strokeColor=none;" vertex="1" parent="1">
          <mxGeometry x="400" y="10" width="20" height="20" as="geometry" />
        </mxCell>
        <mxCell id="dbmXH5uM6QimkMxO3Vcu-10" value="B" style="rounded=1;whiteSpace=wrap;html=1;fillColor=none;strokeColor=none;" vertex="1" parent="1">
          <mxGeometry x="440" y="10" width="20" height="20" as="geometry" />
        </mxCell>
        <mxCell id="dbmXH5uM6QimkMxO3Vcu-11" value="A" style="rounded=1;whiteSpace=wrap;html=1;fillColor=none;strokeColor=none;" vertex="1" parent="1">
          <mxGeometry x="480" y="10" width="20" height="20" as="geometry" />
        </mxCell>
        <mxCell id="dbmXH5uM6QimkMxO3Vcu-12" value="" style="endArrow=none;html=1;rounded=0;" edge="1" parent="1">
          <mxGeometry width="50" height="50" relative="1" as="geometry">
            <mxPoint x="360" y="80" as="sourcePoint" />
            <mxPoint x="380" y="80" as="targetPoint" />
          </mxGeometry>
        </mxCell>
        <mxCell id="dbmXH5uM6QimkMxO3Vcu-13" value="" style="rounded=0;whiteSpace=wrap;html=1;fillColor=none;strokeColor=none;" vertex="1" parent="1">
          <mxGeometry width="40" height="40" as="geometry" />
        </mxCell>
        <mxCell id="dbmXH5uM6QimkMxO3Vcu-14" value="" style="rounded=0;whiteSpace=wrap;html=1;fillColor=none;strokeColor=none;" vertex="1" parent="1">
          <mxGeometry x="760" width="40" height="40" as="geometry" />
        </mxCell>
        <mxCell id="dbmXH5uM6QimkMxO3Vcu-15" value="1.0" style="rounded=1;whiteSpace=wrap;html=1;fillColor=none;strokeColor=none;fontSize=10;" vertex="1" parent="1">
          <mxGeometry x="530" y="30" width="20" height="20" as="geometry" />
        </mxCell>
        <mxCell id="dbmXH5uM6QimkMxO3Vcu-16" value="0." style="rounded=1;whiteSpace=wrap;html=1;fillColor=none;strokeColor=none;fontSize=10;" vertex="1" parent="1">
          <mxGeometry x="530" y="70" width="20" height="20" as="geometry" />
        </mxCell>
      </root>
    </mxGraphModel>
  </diagram>
</mxfile>
